# xmcd
#
# Track frame offsets:
#   150
#   18956
#   29993
#   45519
#   60587
#   77579
#   90333
#   106320
#   124627
#   140152
#   152098
#   170883
#
# Disc length: 2519 seconds
#
# Revision: 0
# Processed by: cddbd v1.5.2PL0 Copyright (c) Steve Scherf et al.
# Submitted via: GXTranscoder 2.24.2980
#
DISCID=9a09d50c
DTITLE=Rumer - Boy's don't cry
DYEAR=2012
DGENRE=Pop
TTITLE0=P.F Slone
TTITLE1=It could be the first day
TTITLE2=Be nice to me
TTITLE3=Travelin' boy
TTITLE4=Soulsville
TTITLE5=The same old tears on a new background
TTITLE6=Sara smile
TTITLE7=Flyin' shoes
TTITLE8=Home thoughts from abroad
TTITLE9=Just for a moment
TTITLE10=Brave awakening
TTITLE11=We will
EXTD=
EXTT0=
EXTT1=
EXTT2=
EXTT3=
EXTT4=
EXTT5=
EXTT6=
EXTT7=
EXTT8=
EXTT9=
EXTT10=
EXTT11=
PLAYORDER=
